<?xml version="1.0" encoding="utf-8"?>
<!-- Generator: Adobe Illustrator 22.0.1, SVG Export Plug-In . SVG Version: 6.00 Build 0)  -->
<svg version="1.1" id="Layer_1" xmlns="http://www.w3.org/2000/svg" xmlns:xlink="http://www.w3.org/1999/xlink" x="0px" y="0px"
	 viewBox="0 0 100 155.1" style="enable-background:new 0 0 100 155.1;" xml:space="preserve">
<style type="text/css">
	.st0{fill:#FFFFFF;}
	.st1{fill:#86C828;}
	.st2{fill:#202022;}
</style>
<g>
	<path class="st0" d="M99.9,0.1h-100v104.6h0c0,0.1,0,0.2,0,0.3c0,27.7,22.4,50.1,50,50.1s50-22.4,50-50.1c0-0.1,0-0.2,0-0.3h0V0.1z
		"/>
</g>
<g>
	<path class="st1" d="M45.8,103.2c-9.2-2-15.1-2.6-20.8-8.9v16c0,17.4,10.6,20.1,22.2,20.1c1.7,0,3.3-0.1,4.9-0.3
		c8.2-1.2,15.7-5.5,15.7-14.2C67.8,106.6,55.5,105.5,45.8,103.2"/>
	<path class="st2" d="M66.1,103.9c4.7,2.9,6.4,6.7,6.9,10c0.6-1.9,2.4-9.3,2.4-13.2c0-7.7-2.2-15.6-7-21.2c-5.6-6-13.8-8.3-22.2-8.3
		c-14.4,0-19.7,6.7-19.7,11.7c0,10.2,5,11.1,11.5,13v-8.5v-0.2c0-2.6,1.1-3.3,3.7-3.3h5.9c2.3,0,4.6,0.1,6.8,1
		C59.8,87,62,92.6,62,98.1c0,0,0,0,0,0.1c0,0,0,0.1,0,0.1c0,0.3,0,0.7,0,1c0,0,0,0.1,0,0.1c0,0.3,0,0.6-0.1,0.8c0,0.2,0,0.3,0,0.5
		c0,0.1,0,0.1,0,0.2c0,0.2-0.1,0.6-0.2,0.9c0.4,0.2,0.9,0.3,1.3,0.5C63.8,102.6,64.9,103.1,66.1,103.9"/>
</g>
<g>
	<path class="st1" d="M45.8,103.2c-9.2-2-15.1-2.6-20.8-8.9v16c0,17.4,10.6,20.1,22.2,20.1c1.7,0,3.3-0.1,4.9-0.3
		c8.2-1.2,15.7-5.5,15.7-14.2C67.8,106.6,55.5,105.5,45.8,103.2"/>
	<path class="st2" d="M66.1,103.9c4.7,2.9,6.4,6.7,6.9,10c0.6-1.9,2.4-9.3,2.4-13.2c0-7.7-2.2-15.6-7-21.2c-5.6-6-13.8-8.3-22.2-8.3
		c-14.4,0-19.7,6.7-19.7,11.7c0,10.2,5,11.1,11.5,13v-8.5v-0.2c0-2.6,1.1-3.3,3.7-3.3h5.9c2.3,0,4.6,0.1,6.8,1
		C59.8,87,62,92.6,62,98.1c0,0,0,0,0,0.1c0,0,0,0.1,0,0.1c0,0.3,0,0.7,0,1c0,0,0,0.1,0,0.1c0,0.3,0,0.6-0.1,0.8c0,0.2,0,0.3,0,0.5
		c0,0.1,0,0.1,0,0.2c0,0.2-0.1,0.6-0.2,0.9c0.4,0.2,0.9,0.3,1.3,0.5C63.8,102.6,64.9,103.1,66.1,103.9"/>
</g>
</svg>
